<svg xmlns="http://www.w3.org/2000/svg" width="256" height="256" viewBox="0 0 100 100"><rect width="100" height="100" rx="50" fill="#e1fced"></rect><path fill="#000000" d="M32.84 38.91L25.09 38.91L25.09 64.15Q24.85 64.24 24.36 64.36Q23.87 64.48 23.35 64.48L23.35 64.48Q21.28 64.48 21.28 62.74L21.28 62.74L21.28 38.91L12.49 38.91Q12.35 38.67 12.21 38.27Q12.07 37.87 12.07 37.36L12.07 37.36Q12.07 36.56 12.45 36.11Q12.82 35.66 13.53 35.66L13.53 35.66L33.88 35.66Q34.02 35.90 34.16 36.30Q34.30 36.70 34.30 37.17L34.30 37.17Q34.30 37.97 33.93 38.44Q33.55 38.91 32.84 38.91L32.84 38.91ZM62.03 64.90L62.03 64.90Q61.52 64.90 61.09 64.62Q60.67 64.33 60.15 63.82L60.15 63.82L57.75 61.33Q56.20 62.97 53.95 63.96Q51.69 64.95 48.59 64.95L48.59 64.95Q46.15 64.95 44.17 64.26Q42.20 63.58 40.79 62.36Q39.38 61.14 38.60 59.38Q37.83 57.61 37.83 55.45L37.83 55.45Q37.83 52.16 39.57 49.98Q41.30 47.79 43.98 46.80L43.98 46.80Q42.86 45.49 42.29 44.22Q41.73 42.95 41.73 41.45L41.73 41.45Q41.73 38.53 43.68 36.79Q45.63 35.05 49.20 35.05L49.20 35.05Q51.69 35.05 52.98 35.76Q54.28 36.46 54.28 37.55L54.28 37.55Q54.28 38.11 53.97 38.56Q53.67 39.00 53.29 39.24L53.29 39.24Q52.54 38.81 51.53 38.53Q50.52 38.25 49.44 38.25L49.44 38.25Q47.65 38.25 46.62 39.12Q45.58 39.99 45.58 41.49L45.58 41.49Q45.58 42.95 46.33 44.08Q47.09 45.21 48.50 46.66L48.50 46.66L57.33 55.88Q57.99 54.37 58.34 52.30Q58.69 50.23 58.69 47.65L58.69 47.65Q59.12 47.46 59.56 47.34Q60.01 47.23 60.43 47.23L60.43 47.23Q62.31 47.23 62.31 49.34L62.31 49.34Q62.31 51.74 61.70 54.18Q61.09 56.63 59.96 58.60L59.96 58.60L64.10 62.88Q63.82 64.90 62.03 64.90ZM48.64 61.75L48.64 61.75Q50.28 61.75 52.07 61.09Q53.85 60.43 55.41 58.88L55.41 58.88L46.29 49.34Q45.39 49.62 44.55 50.12Q43.70 50.61 43.07 51.39Q42.43 52.16 42.03 53.20Q41.63 54.23 41.63 55.50L41.63 55.50Q41.63 58.32 43.49 60.03Q45.35 61.75 48.64 61.75ZM71.67 64.24L71.67 64.24Q70.73 64.24 70.16 63.68Q69.60 63.11 69.60 62.17L69.60 62.17L69.60 37.73Q69.60 36.79 70.16 36.23Q70.73 35.66 71.67 35.66L71.67 35.66L87.27 35.66Q87.41 35.90 87.55 36.30Q87.69 36.70 87.69 37.17L87.69 37.17Q87.69 37.97 87.32 38.44Q86.94 38.91 86.24 38.91L86.24 38.91L73.41 38.91L73.41 47.98L85.81 47.98Q85.95 48.21 86.10 48.61Q86.24 49.01 86.24 49.48L86.24 49.48Q86.24 50.28 85.86 50.73Q85.48 51.17 84.78 51.17L84.78 51.17L73.41 51.17L73.41 61.05L87.51 61.05Q87.65 61.28 87.79 61.66Q87.93 62.03 87.93 62.55L87.93 62.55Q87.93 63.35 87.55 63.79Q87.18 64.24 86.47 64.24L86.47 64.24L71.67 64.24Z"></path></svg>